<?xml version="1.0" encoding="UTF-8" standalone="no"?>

<svg xmlns="http://www.w3.org/2000/svg" height="1000" width="1000" viewBox="0 0 400 400">
    <defs>
        <linearGradient id="rad-grad">
            <stop offset="0%" stop-color="#12c2e9"/>
            <stop offset="50%" stop-color="#c471ed"/>
            <stop offset="90%" stop-color="#f64f59"/>
        </linearGradient>
    </defs>
    <circle r="200" cx="200" cy="200" fill="#000000"/>
    <path fill="url(#rad-grad)" d="M190.000 5.863 C 189.230 5.937,186.530 6.188,184.000 6.422 C 151.065 9.457,119.471 20.716,91.400 39.420 C -7.987 105.645,-23.981 246.613,58.252 331.581 C 67.778 341.424,86.180 356.406,91.030 358.267 C 92.545 358.848,91.042 357.602,86.119 354.194 C 26.203 312.722,-3.258 241.185,9.194 167.400 C 23.262 84.042,95.061 17.393,180.509 8.373 C 224.128 3.769,261.266 10.760,302.904 31.412 C 313.304 36.570,314.062 35.897,303.909 30.520 C 278.055 16.828,250.789 8.777,221.600 6.218 C 215.322 5.668,194.461 5.433,190.000 5.863 M155.600 13.190 C 82.655 32.809,23.519 96.170,11.413 167.680 C 4.092 210.926,13.852 257.698,38.901 299.400 C 43.312 306.744,48.457 314.339,50.519 316.551 C 52.504 318.680,52.266 318.255,47.181 310.600 C 42.853 304.083,40.745 300.681,41.481 301.400 C 41.707 301.620,42.844 303.240,44.008 305.000 C 89.300 373.450,180.308 406.016,259.639 382.160 C 297.248 370.851,326.163 350.478,352.403 316.800 C 377.194 284.983,387.989 251.356,385.982 212.200 C 385.279 198.488,384.947 200.005,384.974 216.800 C 385.029 250.480,379.324 273.052,364.604 297.400 C 348.617 323.841,329.116 344.241,303.135 361.702 C 266.653 386.219,201.516 393.921,152.069 379.566 C 146.868 378.056,139.520 375.547,139.718 375.349 C 139.797 375.269,141.468 375.752,143.431 376.421 C 220.723 402.774,309.526 371.615,351.946 303.257 C 359.603 290.919,366.247 277.187,364.552 277.203 C 364.099 277.208,361.200 281.695,361.200 282.392 C 361.200 283.643,352.704 296.866,346.930 304.600 C 326.675 331.734,299.236 353.723,271.092 365.373 C 263.579 368.483,243.859 372.543,229.081 374.023 C 223.571 374.574,222.548 374.356,227.302 373.643 C 272.186 366.910,312.000 342.280,336.651 305.997 C 345.250 293.340,356.124 271.629,355.370 268.623 C 354.977 267.059,354.596 267.600,351.421 274.222 C 307.818 365.165,192.787 396.648,107.800 340.899 C 71.688 317.211,47.501 282.710,37.357 240.420 C 35.389 232.216,34.969 230.903,34.002 229.951 C 32.089 228.067,29.400 196.474,30.397 187.596 C 31.887 174.322,35.256 160.741,40.496 146.886 C 42.879 140.586,43.330 140.138,41.372 146.016 C 11.474 235.754,64.536 333.740,154.000 354.000 C 167.535 357.065,195.600 359.527,195.600 357.650 C 195.600 357.136,193.489 356.800,190.250 356.798 C 130.533 356.764,73.683 317.972,49.671 260.873 C 37.984 233.082,33.977 196.413,40.047 172.802 C 50.236 133.169,70.369 100.336,99.205 76.329 C 105.105 71.417,107.702 68.669,106.637 68.464 C 105.430 68.232,103.167 69.637,96.900 74.509 C 96.625 74.723,96.400 74.801,96.400 74.682 C 96.400 74.380,102.371 69.772,106.200 67.120 C 112.922 62.463,124.423 56.624,135.600 52.193 C 143.322 49.132,146.800 47.450,146.800 46.776 C 146.800 45.886,163.597 41.356,172.710 39.788 C 257.303 25.228,337.282 73.695,366.036 156.944 C 370.854 170.891,373.013 166.457,368.578 151.723 C 343.360 67.936,249.983 16.005,162.000 36.837 C 118.710 47.087,76.122 77.720,52.220 115.800 C 49.040 120.865,48.085 122.074,50.009 118.600 C 104.905 19.435,242.060 -2.683,330.497 73.368 C 367.687 105.349,389.043 147.105,394.240 198.000 C 394.840 203.883,395.927 202.971,395.972 196.547 C 395.987 194.317,395.635 189.727,395.188 186.347 C 379.261 65.792,246.267 -8.518,132.564 39.606 C 76.835 63.193,36.878 113.952,27.633 172.906 C 24.008 196.022,25.331 227.513,30.830 249.000 C 31.674 252.300,32.468 255.450,32.594 256.000 L 32.823 257.000 32.378 256.000 C 25.369 240.237,21.555 200.626,24.765 176.939 C 33.256 114.270,69.177 65.337,127.987 36.325 C 144.834 28.014,147.158 26.400,142.275 26.400 C 128.416 26.400,93.741 46.954,72.455 67.786 C 27.496 111.788,9.935 168.042,20.194 235.201 C 20.450 236.875,20.293 236.548,19.380 233.500 C 17.630 227.662,17.499 234.032,19.203 242.102 C 21.354 252.292,24.972 264.126,28.762 273.371 C 30.521 277.662,30.681 279.237,28.964 275.361 C 10.378 233.413,8.750 183.486,24.459 137.211 C 25.540 134.027,26.364 131.147,26.290 130.811 C 26.060 129.766,24.201 133.908,22.076 140.200 C 9.133 178.523,9.100 221.573,21.984 259.770 C 22.869 262.394,23.527 264.606,23.447 264.686 C 22.715 265.418,16.415 243.669,14.442 233.600 C -4.611 136.358,55.887 42.248,155.494 14.181 C 158.273 13.398,160.829 12.593,161.174 12.391 C 162.395 11.676,159.897 12.034,155.600 13.190 M190.400 51.768 C 190.400 52.173,190.754 52.400,191.384 52.400 C 193.873 52.400,194.000 53.025,194.000 65.294 L 194.000 76.436 193.018 77.418 C 192.478 77.958,191.668 78.400,191.218 78.400 C 190.758 78.400,190.400 78.662,190.400 79.000 C 190.400 79.889,205.985 79.873,209.416 78.980 C 220.606 76.068,221.583 57.088,210.800 52.088 C 208.700 51.114,190.400 50.827,190.400 51.768 M208.257 53.109 C 212.404 56.454,212.223 74.593,208.013 77.591 C 205.931 79.073,201.990 78.307,201.456 76.316 C 201.321 75.812,201.208 70.225,201.205 63.900 L 201.200 52.400 204.300 52.409 C 206.630 52.416,207.613 52.589,208.257 53.109 M234.383 64.315 C 224.589 77.060,223.257 78.400,220.387 78.400 C 217.456 78.400,222.264 80.393,227.100 81.184 C 227.549 81.257,227.029 80.189,226.345 79.636 C 225.260 78.757,225.750 76.980,227.718 74.656 L 229.025 73.111 233.874 74.236 L 238.722 75.362 239.161 77.547 C 239.984 81.647,239.356 83.686,237.604 82.602 C 237.382 82.465,237.200 82.618,237.200 82.942 C 237.200 83.473,247.882 86.400,249.820 86.400 C 250.810 86.400,250.461 85.715,249.044 84.879 C 247.294 83.847,247.300 83.865,244.207 68.437 C 242.777 61.308,241.553 55.420,241.486 55.353 C 241.419 55.286,238.222 59.319,234.383 64.315 M148.500 61.271 C 138.942 64.711,136.428 66.001,139.900 65.684 C 142.250 65.470,142.550 65.981,146.385 76.735 C 150.450 88.132,150.485 88.321,148.767 89.766 C 146.346 91.803,147.946 91.449,158.764 87.553 C 171.736 82.882,170.040 84.131,169.734 79.473 C 169.478 75.575,168.400 73.587,168.400 77.013 C 168.400 81.836,160.992 87.784,157.849 85.485 C 156.379 84.411,153.220 74.667,154.171 74.143 C 157.148 72.502,160.113 72.532,160.878 74.211 C 161.369 75.290,162.000 75.531,162.000 74.641 C 162.000 73.483,159.482 67.226,159.109 67.456 C 158.895 67.589,158.825 68.226,158.954 68.872 C 159.265 70.427,158.037 71.658,155.249 72.584 C 152.697 73.431,153.121 73.893,150.989 67.949 C 148.795 61.828,148.780 62.156,151.273 61.415 C 155.708 60.098,159.022 60.772,161.024 63.396 C 162.873 65.820,162.906 64.462,161.081 61.086 C 158.895 57.044,160.304 57.024,148.500 61.271 M262.000 62.350 C 262.000 62.573,262.331 62.990,262.737 63.277 C 264.956 64.852,264.930 64.971,259.855 76.556 C 255.038 87.551,255.197 87.303,253.069 87.133 C 249.987 86.887,250.963 87.631,257.600 90.586 C 264.119 93.489,266.162 93.894,263.657 91.787 C 261.853 90.269,261.927 89.970,266.855 78.819 C 271.623 68.030,272.093 67.367,274.274 68.361 C 275.081 68.729,276.027 68.294,275.521 67.788 C 274.645 66.912,262.000 61.827,262.000 62.350 M237.432 68.967 C 238.662 75.040,239.117 74.496,233.860 73.238 L 229.519 72.200 232.840 67.914 C 234.666 65.556,236.214 63.681,236.280 63.746 C 236.345 63.812,236.864 66.161,237.432 68.967 M125.810 71.633 C 122.735 73.606,120.047 75.393,119.837 75.603 C 119.195 76.245,119.822 76.448,121.029 75.989 C 123.136 75.188,123.856 75.744,127.019 80.616 C 128.659 83.141,130.000 85.363,130.000 85.552 C 130.000 85.822,125.954 88.583,122.169 90.896 C 121.844 91.095,120.755 89.708,118.869 86.696 C 115.362 81.097,115.153 80.376,116.631 79.007 C 119.263 76.567,116.699 77.472,111.400 80.853 C 108.320 82.818,105.550 84.576,105.244 84.760 C 104.228 85.371,105.101 85.968,106.331 85.504 C 108.720 84.602,109.154 85.036,114.902 94.096 C 122.084 105.416,122.024 105.272,120.357 107.046 C 119.894 107.539,119.581 108.143,119.662 108.387 C 119.863 108.990,132.000 101.283,132.000 100.552 C 132.000 100.102,131.826 100.065,131.226 100.386 C 130.040 101.021,128.193 100.879,127.514 100.100 C 126.318 98.727,122.428 92.278,122.615 91.976 C 122.841 91.609,129.553 87.344,130.406 87.024 C 131.189 86.731,136.000 94.251,136.000 95.769 C 136.000 96.401,135.583 97.224,134.980 97.783 C 132.546 100.040,135.224 98.999,140.789 95.528 C 145.803 92.399,148.784 89.866,146.100 91.014 C 143.114 92.291,143.144 92.320,136.224 81.455 C 130.094 71.830,129.799 71.104,131.400 69.600 C 132.493 68.573,132.679 67.987,131.900 68.023 C 131.625 68.035,128.884 69.660,125.810 71.633 M280.708 70.475 C 280.626 70.721,280.973 71.337,281.480 71.843 C 283.195 73.558,282.613 74.704,271.661 91.200 C 270.099 93.552,268.611 94.169,266.818 93.210 C 266.171 92.863,266.000 92.891,266.000 93.345 C 266.000 93.784,283.660 105.687,285.270 106.334 C 285.612 106.471,291.293 101.763,291.533 101.143 C 291.765 100.547,290.904 100.767,288.962 101.800 C 284.207 104.328,275.933 101.237,276.749 97.238 C 276.894 96.528,287.449 80.121,288.568 78.868 C 289.406 77.929,290.767 77.830,292.500 78.582 C 294.725 79.547,292.569 77.585,288.500 74.941 C 280.963 70.044,280.870 69.991,280.708 70.475 M307.518 88.616 C 307.399 88.734,307.639 89.492,308.051 90.300 C 309.052 92.264,309.076 92.070,306.839 100.239 L 304.877 107.400 301.339 110.693 C 297.588 114.183,296.612 114.584,294.855 113.354 C 292.006 111.358,293.776 113.986,298.363 118.563 C 302.942 123.132,305.736 125.043,303.804 122.285 C 302.514 120.442,302.980 119.313,306.520 115.708 L 309.840 112.328 316.766 110.364 C 324.625 108.135,324.859 108.109,326.988 109.194 C 329.324 110.385,329.183 109.918,326.201 106.586 C 323.532 103.604,322.201 103.048,323.252 105.354 C 323.656 106.240,323.638 106.534,323.151 107.020 C 322.544 107.627,311.743 110.894,310.968 110.705 C 310.700 110.640,311.231 108.174,312.368 104.203 C 314.227 97.710,314.844 96.684,316.122 97.962 C 316.708 98.548,317.200 98.516,317.200 97.893 C 317.200 97.409,308.431 88.400,307.960 88.400 C 307.836 88.400,307.636 88.497,307.518 88.616 M89.676 99.603 L 80.752 108.762 83.025 111.781 C 85.670 115.296,86.770 115.794,85.292 112.809 C 84.044 110.286,84.294 108.037,86.123 105.336 C 87.920 102.681,87.388 102.375,96.714 111.429 C 105.832 120.281,106.189 120.810,104.596 123.085 C 103.795 124.227,104.615 124.785,105.572 123.749 C 105.952 123.337,108.213 120.974,110.596 118.498 C 115.032 113.891,115.539 112.968,112.965 114.190 C 110.910 115.165,110.901 115.159,101.500 106.008 C 91.993 96.755,92.579 97.725,95.349 95.818 C 98.109 93.917,100.052 93.632,102.592 94.755 C 104.793 95.729,104.800 95.730,104.800 95.203 C 104.800 94.866,99.071 90.359,98.721 90.422 C 98.655 90.433,94.584 94.565,89.676 99.603 M153.400 121.870 C 131.755 124.571,110.399 142.714,96.984 169.800 C 90.765 182.358,91.146 188.314,98.400 191.910 C 103.559 194.467,106.865 193.890,140.400 184.584 C 160.812 178.919,169.200 181.253,169.200 192.595 C 169.200 196.148,169.117 196.252,164.207 198.854 C 134.131 214.795,118.208 237.282,135.239 239.763 C 145.362 241.238,164.009 221.206,170.431 201.956 C 172.118 196.901,171.590 197.338,180.600 193.521 C 188.159 190.319,207.398 183.724,207.890 184.165 C 207.939 184.210,206.893 188.106,205.565 192.823 C 201.656 206.710,199.273 216.573,196.425 230.659 C 194.896 238.221,194.880 238.800,196.192 238.800 C 196.894 238.800,197.245 238.536,197.390 237.900 C 197.503 237.405,198.143 234.480,198.812 231.400 C 201.773 217.778,206.572 205.587,213.739 193.478 C 218.456 185.509,224.387 179.731,222.788 184.663 C 221.608 188.303,220.015 190.758,217.503 192.809 C 212.412 196.962,211.090 200.000,214.373 200.000 C 215.059 200.000,217.957 197.208,220.249 194.337 C 223.269 190.554,227.612 188.323,236.488 185.994 C 241.666 184.636,241.463 184.583,240.664 187.074 C 240.079 188.902,239.820 191.073,239.944 193.131 C 240.030 194.559,242.097 196.400,243.615 196.400 C 244.660 196.400,245.448 195.863,247.946 193.448 C 250.884 190.608,251.091 190.486,253.400 190.218 C 256.777 189.827,259.859 188.909,262.257 187.581 C 263.939 186.649,264.286 186.565,264.161 187.121 C 264.077 187.494,263.117 191.400,262.027 195.800 C 253.676 229.519,252.479 242.614,257.669 243.456 C 260.569 243.927,264.158 237.507,275.814 211.000 C 279.490 202.640,283.748 193.058,285.276 189.707 C 287.918 183.915,288.204 182.800,287.051 182.800 C 286.246 182.800,282.535 190.548,274.021 210.000 C 264.960 230.701,259.541 241.200,257.917 241.200 C 257.235 241.200,257.808 230.057,258.769 224.621 C 259.507 220.442,261.418 212.391,269.441 179.642 C 271.165 172.608,275.487 157.181,275.832 156.835 C 276.089 156.577,282.016 155.737,294.400 154.201 C 300.670 153.424,308.050 152.509,310.800 152.168 C 313.550 151.828,318.832 151.110,322.537 150.574 C 333.736 148.955,336.729 149.268,336.465 152.032 C 336.329 153.464,336.405 153.657,337.054 153.528 C 337.922 153.356,338.162 148.802,337.346 147.986 C 335.977 146.617,330.283 146.471,322.564 147.605 C 317.250 148.386,297.266 150.866,292.000 151.398 C 290.570 151.542,286.736 152.102,283.480 152.641 C 280.224 153.181,277.404 153.526,277.213 153.408 C 277.022 153.290,277.772 149.689,278.879 145.405 C 280.839 137.823,281.081 135.548,279.790 136.839 C 279.470 137.158,277.988 141.190,276.496 145.797 L 273.782 154.174 272.391 154.465 C 253.698 158.373,236.617 158.079,238.860 153.887 C 239.338 152.994,239.077 152.608,238.217 152.938 C 236.500 153.597,238.500 156.341,241.797 157.850 C 245.879 159.719,252.501 159.763,266.400 158.015 C 269.590 157.614,272.323 157.401,272.474 157.543 C 272.624 157.684,271.519 161.580,270.018 166.200 C 268.518 170.820,266.782 176.580,266.161 179.000 L 265.032 183.400 261.816 184.989 C 253.727 188.985,251.862 189.048,253.769 185.262 C 257.916 177.028,256.842 171.200,251.179 171.200 C 247.069 171.200,241.200 177.528,241.200 181.959 C 241.200 183.081,241.135 183.112,236.216 184.334 C 233.475 185.014,229.782 186.144,228.009 186.845 C 224.259 188.327,224.097 188.269,224.955 185.750 C 226.005 182.670,225.017 180.800,222.341 180.800 C 219.623 180.800,213.709 188.738,207.962 200.100 C 205.171 205.618,204.032 207.578,204.592 205.900 C 204.684 205.625,206.199 199.522,207.959 192.337 C 209.719 185.153,211.618 177.690,212.180 175.754 C 213.274 171.981,213.451 170.400,212.781 170.400 C 212.194 170.400,211.461 172.268,209.954 177.609 L 208.653 182.217 207.227 182.261 C 204.050 182.358,189.667 187.274,178.211 192.179 C 172.091 194.799,172.000 194.812,172.000 193.073 C 172.000 187.661,166.837 182.045,160.490 180.551 C 154.938 179.245,149.619 180.039,132.000 184.803 C 113.742 189.740,112.955 189.932,108.216 190.601 C 104.284 191.156,101.170 191.146,98.474 190.570 C 90.685 188.905,104.459 160.745,121.375 143.750 C 134.616 130.447,153.713 121.836,164.328 124.383 C 173.964 126.694,173.469 147.557,163.465 160.798 C 161.118 163.904,160.872 164.400,161.676 164.400 C 163.269 164.400,167.999 157.513,170.046 152.212 C 177.705 132.384,170.748 119.705,153.400 121.870 M253.986 173.574 C 255.004 175.476,254.022 180.376,251.668 185.136 C 249.953 188.605,249.837 188.676,247.274 187.825 C 244.181 186.797,243.705 186.316,244.280 184.794 C 244.652 183.807,244.652 183.353,244.280 182.756 C 243.182 180.998,248.529 174.166,251.728 173.240 C 253.530 172.719,253.528 172.718,253.986 173.574 M42.863 183.263 C 41.435 187.774,41.031 208.855,42.179 219.000 C 46.094 253.621,59.666 282.792,82.723 306.142 C 89.630 313.136,102.450 323.683,103.170 322.963 C 103.482 322.651,101.421 320.862,95.688 316.467 C 58.990 288.338,39.212 239.304,43.645 187.446 C 44.065 182.529,43.705 180.603,42.863 183.263 M246.129 188.430 C 248.761 189.856,248.704 189.723,247.367 191.312 C 243.219 196.241,241.272 195.235,242.847 188.977 C 243.380 186.863,243.270 186.881,246.129 188.430 M167.600 200.360 C 167.600 204.030,156.669 221.467,149.853 228.668 C 140.937 238.090,132.024 241.054,130.630 235.062 C 129.020 228.142,143.774 213.313,163.583 201.942 C 167.053 199.951,167.600 199.735,167.600 200.360 M21.514 241.400 C 21.509 241.840,21.274 241.300,20.991 240.200 C 20.708 239.100,20.481 237.840,20.486 237.400 C 20.491 236.960,20.726 237.500,21.009 238.600 C 21.292 239.700,21.519 240.960,21.514 241.400 M26.199 257.600 C 36.646 290.242,55.079 317.707,83.207 342.536 L 85.400 344.472 82.800 342.390 C 58.385 322.840,39.945 296.654,28.299 265.000 C 26.175 259.227,23.166 249.702,23.232 248.959 C 23.269 248.536,23.710 249.821,26.199 257.600 M144.000 259.053 C 144.000 259.851,143.467 260.651,142.052 261.976 C 140.980 262.979,138.816 265.600,137.241 267.800 L 134.379 271.800 138.190 271.914 L 142.000 272.029 142.000 273.966 C 142.000 275.941,141.596 276.603,140.233 276.857 C 139.811 276.936,139.391 277.225,139.300 277.500 C 139.172 277.884,140.398 278.000,144.567 278.000 C 149.018 278.000,150.000 277.896,150.000 277.427 C 150.000 277.098,149.530 276.799,148.900 276.727 C 147.859 276.607,147.794 276.477,147.680 274.300 L 147.560 272.000 148.780 272.000 C 149.598 272.000,150.000 271.802,150.000 271.400 C 150.000 271.001,149.601 270.800,148.810 270.800 L 147.620 270.800 147.510 264.500 L 147.400 258.200 145.700 258.077 C 144.083 257.960,144.000 258.007,144.000 259.053 M158.737 258.808 C 153.351 261.654,152.002 270.023,156.123 275.023 C 160.688 280.561,168.753 277.905,170.378 270.328 C 172.076 262.410,165.060 255.468,158.737 258.808 M229.200 258.636 C 221.934 261.775,220.939 271.955,227.460 276.441 C 233.132 280.344,241.174 277.179,242.799 270.404 C 244.670 262.604,236.461 255.500,229.200 258.636 M244.678 258.255 C 244.165 258.768,244.393 259.200,245.177 259.200 C 246.892 259.200,247.200 260.517,247.200 267.863 C 247.200 275.268,246.945 276.665,245.553 276.869 C 245.063 276.941,244.589 277.225,244.498 277.500 C 244.372 277.884,245.606 278.000,249.800 278.000 C 253.995 278.000,255.228 277.884,255.100 277.500 C 255.009 277.225,254.589 276.940,254.167 276.866 C 252.761 276.621,252.400 275.602,252.400 271.875 L 252.400 268.302 253.278 268.885 C 254.267 269.542,254.239 269.496,256.145 273.600 C 257.922 277.425,258.817 278.000,262.995 278.000 C 266.263 278.000,266.987 277.358,264.458 276.703 C 263.011 276.328,261.962 274.880,260.959 271.872 C 260.172 269.509,258.207 267.469,256.013 266.738 L 254.366 266.189 257.529 262.923 C 259.976 260.395,261.020 259.595,262.146 259.384 C 264.896 258.868,263.927 258.000,260.600 258.000 C 258.200 258.000,257.600 258.120,257.600 258.600 C 257.600 258.930,257.870 259.200,258.200 259.200 C 259.356 259.200,258.773 260.133,255.606 263.353 L 252.412 266.600 252.411 264.000 C 252.411 260.365,252.680 259.604,254.068 259.326 C 254.708 259.198,255.164 258.893,255.083 258.647 C 254.918 258.149,245.152 257.781,244.678 258.255 M274.222 258.291 C 267.183 260.082,264.846 270.649,270.443 275.380 C 273.510 277.971,275.764 278.369,281.700 277.366 C 282.684 277.200,283.200 277.265,283.200 277.556 C 283.200 277.800,283.380 278.000,283.600 278.000 C 283.839 278.000,284.000 276.467,284.000 274.200 C 284.000 270.194,283.479 269.147,283.017 272.225 C 282.133 278.123,274.787 278.623,273.165 272.896 C 272.320 269.917,272.494 264.184,273.498 261.928 C 275.440 257.562,281.573 257.971,282.838 262.553 C 283.487 264.902,284.000 264.217,284.000 261.000 C 284.000 258.341,283.563 257.112,283.105 258.485 C 282.978 258.866,282.489 258.866,280.841 258.485 C 278.750 258.002,275.706 257.913,274.222 258.291 M176.726 259.214 C 174.818 260.222,174.836 260.185,173.578 265.491 C 172.418 270.386,172.568 271.094,174.380 269.281 C 177.906 265.756,181.200 267.282,181.200 272.441 C 181.200 278.109,174.378 278.697,173.239 273.127 C 172.900 271.471,172.000 271.144,172.000 272.678 C 172.000 278.336,183.208 280.164,186.385 275.024 C 189.717 269.634,181.877 263.998,175.542 267.229 C 174.648 267.686,174.005 267.911,174.114 267.729 C 174.222 267.548,174.619 266.005,174.996 264.300 C 175.780 260.747,175.913 260.682,178.754 262.447 C 181.520 264.167,183.278 264.098,186.627 262.139 C 188.878 260.822,189.941 259.483,188.350 259.968 C 186.338 260.581,184.784 260.425,183.102 259.438 C 180.971 258.190,178.809 258.114,176.726 259.214 M164.090 260.900 C 165.377 263.313,165.449 272.503,164.200 275.000 C 161.475 280.451,158.235 272.990,159.372 263.883 C 159.953 259.234,162.383 257.698,164.090 260.900 M235.741 260.500 C 238.866 264.640,238.152 275.044,234.627 276.747 C 230.141 278.914,226.776 270.990,228.973 263.435 C 230.229 259.115,233.593 257.655,235.741 260.500 M142.000 267.000 L 142.000 270.800 139.367 270.800 C 137.918 270.800,136.793 270.640,136.867 270.444 C 137.022 270.030,141.752 263.237,141.900 263.215 C 141.955 263.207,142.000 264.910,142.000 267.000 M205.100 268.680 C 204.295 268.886,203.812 270.378,204.178 271.531 C 204.534 272.651,206.303 273.012,207.247 272.157 C 209.031 270.543,207.503 268.068,205.100 268.680 M105.089 269.044 C 104.946 269.188,105.092 269.681,105.414 270.142 C 106.532 271.737,106.143 272.998,103.706 275.677 C 91.099 289.540,89.898 290.542,87.613 289.115 C 85.583 287.848,86.513 289.576,89.176 292.021 C 92.380 294.962,93.133 295.222,91.997 292.995 C 91.602 292.220,91.372 291.229,91.486 290.795 C 91.689 290.016,104.772 275.839,105.040 276.106 C 105.115 276.182,105.006 280.914,104.798 286.622 C 104.318 299.752,104.303 306.400,104.752 306.400 C 104.946 306.400,108.591 302.667,112.852 298.105 C 123.646 286.549,122.913 287.076,125.462 289.020 C 127.511 290.583,127.287 291.357,122.407 299.567 C 117.388 308.013,117.133 308.856,118.387 312.885 C 120.736 320.432,130.545 324.331,135.881 319.838 C 136.496 319.320,139.066 315.463,141.592 311.266 C 146.399 303.279,147.115 302.483,148.884 303.156 L 149.936 303.556 148.577 306.078 C 146.814 309.350,146.720 311.893,148.477 308.806 C 149.775 306.524,152.893 305.281,156.103 305.767 C 159.063 306.214,159.092 305.748,155.447 316.621 C 150.579 331.140,150.762 330.807,147.991 330.198 C 147.135 330.010,146.801 330.086,146.804 330.468 C 146.808 331.061,160.278 335.856,160.714 335.419 C 160.858 335.276,160.396 334.704,159.688 334.150 C 158.752 333.418,158.400 332.817,158.400 331.953 C 158.400 331.050,165.327 309.535,165.833 308.867 C 165.888 308.793,166.713 309.079,167.667 309.502 C 170.989 310.977,173.251 314.528,172.701 317.406 C 172.579 318.043,172.694 318.400,173.019 318.400 C 173.338 318.400,173.713 317.317,174.025 315.500 C 174.619 312.032,174.767 311.820,176.149 312.449 C 177.741 313.175,177.752 313.722,176.413 325.421 C 175.061 337.222,174.797 338.000,172.144 338.000 C 166.903 338.000,178.634 340.257,184.500 340.377 C 185.945 340.407,185.906 339.785,184.431 339.271 C 182.513 338.602,182.360 337.857,183.009 332.350 C 183.330 329.628,183.595 327.332,183.597 327.248 C 183.607 326.801,187.422 327.615,187.810 328.147 C 188.063 328.492,188.587 330.289,188.976 332.139 C 190.381 338.838,192.418 341.315,196.901 341.782 C 198.275 341.925,199.895 342.137,200.500 342.253 C 201.325 342.411,201.600 342.305,201.600 341.832 C 201.600 341.482,201.267 341.200,200.855 341.200 C 199.130 341.200,197.688 338.829,196.230 333.600 C 195.448 330.795,194.329 328.988,192.794 328.055 L 191.580 327.316 193.379 326.629 C 198.152 324.806,199.454 318.316,195.672 315.198 C 193.539 313.441,191.279 312.850,182.719 311.815 L 175.000 310.880 162.600 306.618 C 153.756 303.578,149.314 301.837,147.112 300.547 C 143.923 298.679,142.327 298.499,144.180 300.217 C 145.843 301.758,145.523 302.741,140.796 310.607 C 135.236 319.858,133.546 321.285,128.897 320.648 C 121.143 319.585,121.426 314.942,130.108 300.800 L 133.423 295.400 135.511 295.455 C 138.465 295.533,138.238 295.271,132.300 291.747 C 129.385 290.017,125.594 287.367,123.876 285.858 C 120.594 282.975,119.799 282.717,120.986 284.921 C 121.967 286.745,121.514 287.502,116.033 293.200 L 111.608 297.800 111.797 293.800 C 111.900 291.600,112.087 286.508,112.210 282.485 L 112.436 275.171 109.167 272.085 C 105.659 268.775,105.487 268.646,105.089 269.044 M299.590 271.566 C 296.504 274.400,296.125 275.401,298.580 274.236 C 299.764 273.675,300.136 273.650,300.919 274.084 C 301.742 274.540,310.919 284.056,310.690 284.216 C 310.641 284.251,306.370 283.867,301.200 283.364 C 287.261 282.006,288.533 281.856,284.816 285.300 C 281.047 288.792,280.608 289.741,283.276 288.626 C 285.295 287.782,285.691 288.085,293.833 296.705 C 301.706 305.039,301.873 305.296,300.803 307.395 C 299.667 309.622,300.420 309.362,303.624 306.421 C 306.287 303.976,307.217 302.248,305.187 303.515 C 303.060 304.843,302.425 304.413,295.420 296.900 C 287.473 288.376,286.350 289.071,305.000 290.970 C 313.061 291.790,318.748 292.208,318.963 291.994 C 319.179 291.780,316.838 288.999,313.176 285.117 C 309.794 281.533,305.896 277.403,304.513 275.939 C 301.820 273.087,301.381 271.747,302.671 270.322 C 304.649 268.136,302.288 269.090,299.590 271.566 M27.972 275.400 C 27.972 275.620,27.714 275.350,27.400 274.800 C 27.086 274.250,26.828 273.620,26.828 273.400 C 26.828 273.180,27.086 273.450,27.400 274.000 C 27.714 274.550,27.972 275.180,27.972 275.400 M31.966 284.200 C 31.966 284.420,31.622 283.970,31.200 283.200 C 30.778 282.430,30.434 281.620,30.434 281.400 C 30.434 281.180,30.778 281.630,31.200 282.400 C 31.622 283.170,31.966 283.980,31.966 284.200 M275.200 292.819 C 266.015 294.366,260.682 304.316,264.550 312.689 C 270.519 325.612,289.029 323.144,291.621 309.079 C 293.332 299.793,284.677 291.224,275.200 292.819 M276.761 295.580 C 281.135 297.811,286.930 307.606,286.885 312.689 C 286.782 324.133,274.107 318.969,268.980 305.395 C 266.208 298.056,270.645 292.460,276.761 295.580 M251.503 304.342 C 244.960 306.939,243.111 308.150,246.354 307.715 C 248.665 307.405,249.032 307.984,253.332 318.733 C 257.659 329.549,257.740 329.952,255.923 331.612 C 253.756 333.591,254.906 333.393,261.987 330.570 C 268.680 327.902,270.120 326.906,266.954 327.135 C 264.717 327.296,264.584 327.079,260.236 316.208 C 255.975 305.554,255.776 304.546,257.647 303.082 C 259.902 301.317,258.294 301.647,251.503 304.342 M231.497 310.379 C 224.950 311.861,219.493 313.174,219.368 313.298 C 218.927 313.739,219.786 320.931,220.300 321.101 C 220.646 321.216,220.800 320.758,220.800 319.613 C 220.800 316.650,223.200 313.711,226.406 312.751 C 228.591 312.096,228.351 311.504,231.175 324.513 C 233.921 337.164,233.928 337.601,231.378 338.241 C 230.345 338.500,230.225 339.460,231.241 339.327 C 231.549 339.287,234.720 338.612,238.289 337.827 C 241.858 337.042,244.873 336.400,244.989 336.400 C 245.105 336.400,245.200 336.220,245.200 336.000 C 245.200 335.780,244.590 335.600,243.844 335.600 C 241.177 335.600,241.029 335.257,238.197 322.510 C 236.769 316.080,235.600 310.725,235.600 310.610 C 235.600 310.494,236.915 310.400,238.522 310.400 C 241.978 310.400,244.672 311.758,245.584 313.961 C 246.085 315.172,247.144 315.496,246.868 314.355 C 246.392 312.383,244.259 307.608,243.871 307.643 C 243.612 307.667,238.044 308.898,231.497 310.379 M212.600 313.066 C 205.289 313.510,204.000 313.685,204.000 314.236 C 204.000 314.588,204.424 314.800,205.130 314.800 C 207.669 314.800,207.849 315.468,208.519 327.400 C 209.194 339.410,209.130 339.926,206.900 340.583 C 206.185 340.793,205.600 341.154,205.600 341.384 C 205.600 341.707,219.435 341.195,220.300 340.841 C 220.845 340.618,220.171 340.000,219.382 340.000 C 218.177 340.000,216.400 338.364,216.400 337.255 C 216.400 336.825,216.127 331.950,215.793 326.422 C 215.100 314.922,215.252 314.024,217.900 314.006 C 218.431 314.003,218.800 313.754,218.800 313.400 C 218.800 312.786,217.953 312.741,212.600 313.066 M189.700 314.323 C 192.736 317.358,189.989 326.250,186.050 326.143 C 183.410 326.072,183.586 326.762,184.434 319.800 C 184.837 316.500,185.173 313.642,185.183 313.448 C 185.215 312.784,188.870 313.492,189.700 314.323 M90.800 348.667 C 90.800 348.777,90.080 348.297,89.200 347.600 C 88.320 346.903,87.600 346.243,87.600 346.133 C 87.600 346.023,88.320 346.503,89.200 347.200 C 90.080 347.897,90.800 348.557,90.800 348.667 M119.000 357.614 C 151.739 373.780,187.189 380.539,222.955 377.433 C 227.111 377.072,230.606 376.872,230.722 376.989 C 230.838 377.105,230.717 377.200,230.452 377.200 C 230.187 377.200,226.962 377.594,223.285 378.075 C 186.760 382.857,144.642 374.011,112.000 354.702 C 107.451 352.011,105.532 350.582,109.200 352.616 C 110.630 353.409,115.040 355.658,119.000 357.614 M112.800 363.021 C 112.800 363.131,112.260 362.941,111.600 362.600 C 110.940 362.259,110.400 361.889,110.400 361.779 C 110.400 361.669,110.940 361.859,111.600 362.200 C 112.260 362.541,112.800 362.911,112.800 363.021 M119.600 366.612 C 119.600 366.722,118.520 366.266,117.200 365.600 C 115.880 364.934,114.800 364.298,114.800 364.188 C 114.800 364.078,115.880 364.534,117.200 365.200 C 118.520 365.866,119.600 366.502,119.600 366.612 M104.749 365.548 C 106.103 366.589,121.140 373.496,127.975 376.216 C 147.251 383.888,170.758 389.996,185.064 391.050 C 190.338 391.439,188.995 390.985,182.000 390.014 C 158.301 386.725,131.255 378.093,107.971 366.385 C 104.641 364.711,103.161 364.326,104.749 365.548 M124.400 368.800 C 125.170 369.222,125.620 369.566,125.400 369.566 C 125.180 369.566,124.370 369.222,123.600 368.800 C 122.830 368.378,122.380 368.034,122.600 368.034 C 122.820 368.034,123.630 368.378,124.400 368.800 M138.800 374.867 C 139.217 375.125,139.095 375.157,138.400 374.971 C 137.850 374.824,137.130 374.536,136.800 374.333 C 136.383 374.075,136.505 374.043,137.200 374.229 C 137.750 374.376,138.470 374.664,138.800 374.867 " stroke="none" fill-rule="evenodd"/>
</svg>